<svg width="115" height="115" viewBox="0 0 115 115" fill="none" xmlns="http://www.w3.org/2000/svg">
<path d="M115 57.5C115 89.2564 89.2564 115 57.5 115C25.7436 115 0 89.2564 0 57.5C0 25.7436 25.7436 0 57.5 0C89.2564 0 115 25.7436 115 57.5Z" fill="black"/>
<path d="M115 57.5C115 86.4949 91.4949 110 62.5 110C33.5051 110 10 86.4949 10 57.5C10 28.5051 33.5051 5 62.5 5C91.4949 5 115 28.5051 115 57.5Z" fill="white"/>
<path d="M107 58C107 85.6142 84.6142 108 57 108C29.3858 108 7 85.6142 7 58C7 30.3858 29.3858 8 57 8C84.6142 8 107 30.3858 107 58Z" fill="black"/>
<path d="M97 58C97 80.0914 79.0914 98 57 98C34.9086 98 17 80.0914 17 58C17 35.9086 34.9086 18 57 18C79.0914 18 97 35.9086 97 58Z" fill="white"/>
<path d="M78 58C78 69.598 68.598 79 57 79C45.402 79 36 69.598 36 58C36 46.402 45.402 37 57 37C68.598 37 78 46.402 78 58Z" fill="black"/>
</svg>
