<svg width="178" height="41" viewBox="0 0 178 41" fill="none" xmlns="http://www.w3.org/2000/svg">
<path d="M25.054 2.83313C21.0146 1.49134 17.3748 0.820448 14.1348 0.820448C10.9348 0.820448 8.62884 1.47217 7.21692 2.77563C5.80501 4.07908 5.44147 5.88092 6.12632 8.18113C6.95955 10.9797 9.12445 13.1458 12.621 14.6792C14.1751 15.331 15.8377 15.9444 17.6089 16.5194C19.4087 17.0561 21.2313 17.6695 23.0768 18.3596C24.9222 19.0496 26.6562 19.8355 28.2787 20.7173C29.9013 21.599 31.3665 22.8258 32.6745 24.3976C33.9711 25.9311 34.9789 27.9055 35.698 30.3207C36.4057 32.6976 36.3106 34.7294 35.4128 36.4163C34.5151 38.1031 33.1575 39.2532 31.3401 39.8666C29.5513 40.4416 27.3369 40.7292 24.6969 40.7292C19.7769 40.7292 15.2288 39.5599 11.0525 37.2213L11.2156 36.7613C12.8323 37.758 14.7777 38.5823 17.0518 39.234C19.3544 39.8474 21.6057 40.1541 23.8057 40.1541C27.0457 40.1541 29.5946 39.4449 31.4522 38.0264C33.3385 36.5696 33.865 34.4419 33.0318 31.6433C32.1187 28.5764 29.8853 26.1803 26.3316 24.4551C24.7433 23.6884 23.0322 22.9792 21.1981 22.3274C19.4041 21.6757 17.5844 21.0048 15.7389 20.3148C13.882 19.5864 12.1423 18.7813 10.5198 17.8995C6.9091 15.9827 4.5787 13.2608 3.52859 9.73377C2.69536 6.93518 3.00192 4.67331 4.44829 2.94815C5.88324 1.18465 8.56071 0.302899 12.4807 0.302899C16.4407 0.302899 20.6548 0.954626 25.1228 2.25808L25.054 2.83313ZM38.9387 40.6716H38.1587L26.1739 0.417909H28.2139L64.2513 37.6239L53.1739 0.417909H53.9539L65.9387 40.6716H61.5587L29.0084 7.31855L38.9387 40.6716ZM65.1592 40.6716H64.4392L70.3943 0.417909L70.9687 0.130382L98.1592 40.6716H93.0592L84.6125 28.0205H67.0925L65.1592 40.6716ZM70.3834 6.62849L67.1613 27.4454H84.2613L70.3834 6.62849ZM85.1296 0.877952C89.6783 0.571257 93.7126 0.417909 97.2326 0.417909C107.153 0.417909 113.111 3.77239 115.109 10.4813C116.033 13.5866 116.004 16.3086 115.02 18.6471C114.517 19.9122 113.459 20.9281 111.847 21.6949C110.224 22.4233 108.113 22.7875 105.513 22.7875H96.6328L101.957 40.6716H96.9775L85.1296 0.877952ZM97.4638 0.992961C95.1438 0.992961 92.7438 1.12714 90.2637 1.3955L96.4616 22.2124H105.342C110.913 21.9824 112.58 18.1104 110.343 10.5964C109.43 7.5294 107.888 5.17168 105.717 3.5232C103.535 1.83637 100.784 0.992961 97.4638 0.992961ZM134.363 40.6716H133.643L139.598 0.417909L140.173 0.130382L167.363 40.6716H162.263L153.816 28.0205H136.296L134.363 40.6716ZM139.587 6.62849L136.365 27.4454H153.465L139.587 6.62849ZM154.954 0.992961L154.782 0.417909H165.462L165.634 0.992961H162.694L174.336 40.0966H177.276L177.447 40.6716H166.767L166.596 40.0966H169.356L157.714 0.992961H154.954Z" fill="black"/>
</svg>
